<svg viewBox="0 -2.65 1397.14 205.30000000000004" xmlns="http://www.w3.org/2000/svg" width="2500" height="372"><path d="M1352.26 77.32h-13.32L1371.63 0h-35.32l-37.09 88.28c-1.77 4.5-2.5 7.73-2.5 12.5v63.14c0 38.73 36.96 36.05 44.87 36.05h10.68c7.91 0 44.87 2.68 44.87-36.05v-50.59c0-38.68-36.96-36-44.87-36zm12.28 93.14h-35.23v-63.64h35.23zM100.42 66.49V36.05C100.42-2.65 63.47.04 55.53.04H0v199.92h55.53c7.94 0 44.89 2.69 44.89-36.02V133.5c0-25.52-11.32-31.73-14.92-33.51 3.6-1.78 14.92-7.99 14.92-33.51zM32.46 29.53h22.4c10.76 0 12.97 3.73 12.97 11.08v33.43c0 6.92-3.94 11.21-12.84 11.21H32.46zm35.37 129.85c0 7.35-2.21 11.08-12.97 11.08h-22.4v-55.72h22.53c8.9 0 12.84 4.29 12.84 11.21zM1196.31 36.06c0-38.71-36.95-36.02-44.89-36.02h-55.53v199.92h55.53c7.94 0 44.89 2.69 44.89-36.02zm-32.59 123.32c0 7.35-2.21 11.08-12.97 11.08h-22.4V29.49h22.53c8.9 0 12.84 4.29 12.84 11.21zM664.34 0v29.49h-50.57v55.76h47.57v29.49h-47.57v55.76h50.57V200h-83.03V0zM962.86 0v29.49h-50.57v55.76h47.57v29.49h-47.57v55.76h50.57V200h-83.03V0zM780.7 0v29.49h-50.57v55.76h47.57v29.49h-47.57V200h-32.46V0zM1028.65 0v170.5h50.57V200h-83.03V0zM514.08 0v170.5h50.57V200h-83.03V0zM846.5 0v200h-32.46V0zM205.98 200h32.32L207.35 0h-59.32l-30.95 200h32.32l7.77-55.76h41.05l7.77 55.76zm-44.69-85.25l11.89-85.25h9l11.89 85.25h-32.79zM460.54 0H355.87v29.5h36.1V200h32.46V29.5h36.11zM345.33 0H240.66v29.5h36.1V200h32.46V29.5h36.11zM1212.55 2.51V15h-2.63V2.51h-5.06V0h12.76v2.51h-5.06zM1230.58 15.03V4.77l-2.99 6.57h-1.73l-2.99-6.55v10.23h-2.63V.03h3.01l3.51 7.4 3.46-7.4h2.99v15z"/></svg>